<svg version="1.1" xmlns="http://www.w3.org/2000/svg" xmlns:xlink="http://www.w3.org/1999/xlink" width="48" height="48"><defs><linearGradient x1="10.4695" y1="13.78718" x2="58.7437" y2="55.42602" gradientUnits="userSpaceOnUse" id="color-1"><stop offset="0" stop-color="#000000" stop-opacity="0.32"></stop><stop offset="1" stop-color="#000000" stop-opacity="0"></stop></linearGradient><filter id="dropshadow-base"><feColorMatrix type="matrix" values="0 0 0 0 0  0 0 0 0 0  0 0 0 0 0  0 0 0 .8 0"></feColorMatrix> <feOffset dx="0" dy="1"></feOffset> <feGaussianBlur stdDeviation="1"></feGaussianBlur> <feComposite in="SourceGraphic"></feComposite></filter><filter id="dropshadow-banner" x="-10%" y="-10%" width="120%" height="130%"><feColorMatrix type="matrix" values="0 0 0 0 0  0 0 0 0 0  0 0 0 0 0  0 0 0 .4 0"></feColorMatrix> <feOffset dx="0" dy="1"></feOffset> <feGaussianBlur stdDeviation="0.5"></feGaussianBlur> <feComposite in="SourceGraphic"></feComposite></filter></defs><g fill="none" fill-rule="nonzero" stroke="none" stroke-width="none" stroke-linecap="butt" stroke-linejoin="miter" stroke-miterlimit="10" stroke-dasharray="" stroke-dashoffset="0" font-family="none" font-weight="none" font-size="none" text-anchor="none" style="mix-blend-mode: normal"><path d="M2,24c0,-12.15026 9.84974,-22 22,-22c12.15026,0 22,9.84974 22,22c0,12.15026 -9.84974,22 -22,22c-12.15026,0 -22,-9.84974 -22,-22z" id="base 1 13" fill="#121c4c" stroke-width="1"></path><path d="M12.70816,31.49497c-0.15768,-0.15768 -0.29998,-0.30864 -0.40435,-0.43009c-0.14668,-0.17066 -0.35013,-0.43783 -0.50706,-0.66588c-0.67371,-0.979 -1.08636,-2.01763 -1.26295,-3.17877c-0.03598,-0.23659 -0.04799,-0.4103 -0.05932,-0.8582c-0.0123,-0.48596 0,-4.07751 0.01693,-4.8734c0.01174,-0.55769 0.02621,-0.71989 0.09065,-1.01605c0.26754,-1.22948 0.71652,-2.21015 1.45123,-3.16971c0.2851,-0.37235 0.58385,-0.7066 0.9244,-1.03419c0.08366,-0.08048 0.31147,-0.28701 0.39627,-0.35926c0.52598,-0.44812 1.11784,-0.84258 1.73676,-1.15757c0.16774,-0.08536 0.45594,-0.21783 0.627,-0.28819c0.72794,-0.29939 1.46321,-0.49605 2.24557,-0.60062c0.11889,-0.01588 0.20075,-0.02151 0.42468,-0.02914c1.82603,-0.06231 9.39805,-0.06229 11.17581,0.00001c0.2398,0.0084 0.30322,0.01289 0.4387,0.03107c1.08912,0.14602 2.12549,0.48389 3.0789,1.00372c0.73899,0.40292 1.43016,0.9189 2.04546,1.527c0.0126,0.01245 0.02516,0.02493 0.03766,0.03744l10.62468,10.62468c-1.35158,9.71979 -9.05352,17.40774 -18.78009,18.7381z" fill="url(#color-1)" stroke-width="1"></path><path transform="translate(-8.47319,-8.47319) scale(1.35305,1.35305)" d="M27.86333,31.54521c-5.64274,-0.00276 -7.1594,-0.00737 -7.9044,-0.02406c-0.2715,-0.00608 -0.32776,-0.01001 -0.49812,-0.03477c-0.98954,-0.14384 -1.92687,-0.5027 -2.74862,-1.05233c-0.27315,-0.18269 -0.44006,-0.31672 -0.76362,-0.61317c-0.22364,-0.2049 -0.4538,-0.4376 -0.59287,-0.59942c-0.10841,-0.12613 -0.25877,-0.32359 -0.37475,-0.49213c-0.49792,-0.72355 -0.8029,-1.49117 -0.93341,-2.34934c-0.02659,-0.17486 -0.03547,-0.30324 -0.04384,-0.63427c-0.00909,-0.35916 0,-3.01357 0.01251,-3.60179c0.00868,-0.41217 0.01937,-0.53205 0.067,-0.75093c0.19773,-0.90867 0.52956,-1.63346 1.07256,-2.34264c0.21071,-0.27519 0.43151,-0.52223 0.6832,-0.76434c0.06183,-0.05948 0.2302,-0.21212 0.29287,-0.26552c0.38874,-0.33119 0.82616,-0.62273 1.28359,-0.85553c0.12397,-0.06309 0.33697,-0.16099 0.4634,-0.21299c0.538,-0.22127 1.08142,-0.36662 1.65964,-0.4439c0.08787,-0.01174 0.14837,-0.0159 0.31387,-0.02154c1.34957,-0.04605 6.94583,-0.04604 8.25972,0.00001c0.17723,0.00621 0.2241,0.00953 0.32423,0.02296c0.80494,0.10792 1.57089,0.35763 2.27553,0.74182c0.54617,0.29779 1.05699,0.67913 1.51174,1.12856c0.67804,0.67009 1.17325,1.44683 1.46446,2.29704c0.09071,0.26483 0.17025,0.57555 0.21112,0.82468c0.05441,0.33168 0.08121,0.748 0.09201,1.42945c0.00413,0.26003 0.00348,0.96356 -0.0015,1.63864c-0.00238,0.32082 -0.00433,0.63671 -0.00437,0.70199v0.11868h-6.54982h-6.54974v-1.37447v-1.37447l0.25983,-0.00003c0.14291,0 0.63291,-0.00121 1.08891,-0.00265c0.45599,-0.00144 1.26213,-0.00385 1.79141,-0.00536c0.9154,-0.00262 1.66099,-0.00475 3.73531,-0.01073c0.50404,-0.00144 1.35814,-0.00397 1.898,-0.0056l0.98157,-0.00296l0.0607,-0.03441c0.07582,-0.04298 0.09344,-0.05501 0.13725,-0.09369c0.05511,-0.04866 0.079,-0.08026 0.09692,-0.12822c0.08991,-0.24061 -0.03865,-0.82295 -0.29026,-1.31479c-0.0302,-0.05904 -0.08612,-0.15716 -0.11992,-0.21044c-0.18351,-0.28922 -0.51448,-0.64304 -0.82188,-0.87859c-0.35802,-0.27435 -0.72084,-0.46117 -1.14439,-0.58927c-0.16067,-0.04859 -0.35564,-0.09494 -0.45303,-0.10769c-0.14314,-0.01874 -0.36771,-0.02636 -0.95196,-0.03232c-1.0956,-0.01118 -5.62469,-0.01954 -6.17073,-0.01138c-0.83518,0.01247 -1.07273,0.02969 -1.37835,0.09995c-0.16369,0.03763 -0.29458,0.07728 -0.44711,0.13543c-0.532,0.20283 -1.01202,0.53973 -1.40991,0.98954c-0.25811,0.29179 -0.42914,0.56559 -0.55717,0.89197c-0.0926,0.23606 -0.16643,0.51648 -0.18741,0.71181c-0.00568,0.05289 -0.00487,0.15872 0.00153,0.20114c0.01225,0.08107 0.0388,0.1453 0.08038,0.19444c0.01792,0.02118 0.09236,0.08635 0.1279,0.11198c0.04973,0.03586 0.05473,0.03778 0.11624,0.04472c0.14595,0.01646 0.49512,0.02642 1.27767,0.03642c0.11888,0.00153 0.35273,0.00454 0.51966,0.00672c0.16693,0.00218 0.32382,0.00396 0.34866,0.00397l0.04516,0.00003v1.37416v1.37416l-0.08661,0.00173c-0.04764,0.00097 -0.27982,0.00411 -0.51595,0.00701c-0.93374,0.01147 -1.21246,0.01588 -1.35318,0.02144c-0.21407,0.00846 -0.27227,0.01802 -0.34322,0.0564c-0.14575,0.07885 -0.20073,0.15179 -0.2152,0.28552c-0.00654,0.06042 -0.00118,0.19622 0.01215,0.30779c0.05735,0.48004 0.27646,0.96902 0.62574,1.39651c0.1056,0.12924 0.20853,0.23736 0.34689,0.36435c0.51449,0.47224 1.03846,0.74103 1.73813,0.89165c0.1007,0.02168 0.15239,0.02866 0.26057,0.03522c0.43358,0.02627 1.27238,0.02929 10.83284,0.03902c1.53491,0.00156 2.87769,0.00355 2.98396,0.00442l0.1932,0.00159v1.37281v1.37281l-1.19847,-0.00047c-0.65916,-0.00029 -2.88135,-0.00129 -4.93822,-0.00229z" id="path4497 1 1" fill="none" stroke-width="0"></path><path d="M29.22727,34.20904c-7.63491,-0.00374 -9.68702,-0.00998 -10.69505,-0.03256c-0.36736,-0.00823 -0.44347,-0.01354 -0.67398,-0.04705c-1.33889,-0.19462 -2.60715,-0.68018 -3.71902,-1.42385c-0.36959,-0.24719 -0.59542,-0.42854 -1.03321,-0.82965c-0.30259,-0.27724 -0.61401,-0.5921 -0.80219,-0.81105c-0.14668,-0.17066 -0.35013,-0.43783 -0.50706,-0.66587c-0.67371,-0.979 -1.08636,-2.01762 -1.26295,-3.17877c-0.03598,-0.2366 -0.04799,-0.41029 -0.05932,-0.8582c-0.0123,-0.48596 0,-4.07751 0.01693,-4.87339c0.01174,-0.55769 0.02621,-0.71988 0.09065,-1.01605c0.26753,-1.22948 0.71653,-2.21015 1.45123,-3.1697c0.2851,-0.37235 0.58386,-0.7066 0.9244,-1.03419c0.08366,-0.08048 0.31147,-0.28701 0.39627,-0.35926c0.52599,-0.44812 1.11783,-0.84259 1.73677,-1.15757c0.16773,-0.08536 0.45593,-0.21782 0.627,-0.28818c0.72794,-0.29939 1.46322,-0.49605 2.24558,-0.60062c0.11889,-0.01589 0.20075,-0.02151 0.42468,-0.02915c1.82603,-0.0623 9.39805,-0.06229 11.17581,0.00001c0.23979,0.00841 0.30321,0.01289 0.4387,0.03106c1.08912,0.14603 2.1255,0.48389 3.07891,1.00372c0.73899,0.40293 1.43015,0.9189 2.04547,1.52699c0.91743,0.90667 1.58746,1.95764 1.98148,3.10801c0.12273,0.35832 0.23036,0.77874 0.28566,1.11584c0.07362,0.44878 0.10988,1.01208 0.1245,1.93412c0.00558,0.35183 0.00471,1.30374 -0.00203,2.21716c-0.00322,0.43409 -0.00586,0.86151 -0.00592,0.94982v0.16057h-17.72435v-3.71946l0.35156,-0.00004c0.19336,0 0.85636,-0.00163 1.47335,-0.00358c0.61698,-0.00195 1.70772,-0.00521 2.42386,-0.00725c1.23858,-0.00354 2.2474,-0.00643 5.05406,-0.01452c0.68199,-0.00195 1.83763,-0.00537 2.56809,-0.00758l1.32812,-0.00401l0.08213,-0.04656c0.10258,-0.05815 0.12643,-0.07443 0.18571,-0.12677c0.07456,-0.06583 0.10688,-0.1086 0.13113,-0.17349c0.12165,-0.32556 -0.0523,-1.11349 -0.39273,-1.77897c-0.04087,-0.07989 -0.11652,-0.21265 -0.16226,-0.28474c-0.24829,-0.39133 -0.69612,-0.87006 -1.11204,-1.18878c-0.48442,-0.3712 -0.97533,-0.62398 -1.54842,-0.79731c-0.21739,-0.06575 -0.4812,-0.12846 -0.61298,-0.14571c-0.19368,-0.02535 -0.49753,-0.03567 -1.28805,-0.04374c-1.4824,-0.01513 -7.61048,-0.02643 -8.34931,-0.0154c-1.13004,0.01687 -1.45146,0.04018 -1.86497,0.13524c-0.22148,0.05092 -0.39859,0.10457 -0.60496,0.18325c-0.71982,0.27444 -1.36931,0.73028 -1.90768,1.3389c-0.34923,0.3948 -0.58065,0.76527 -0.75387,1.20687c-0.12529,0.3194 -0.22519,0.69882 -0.25357,0.96311c-0.00769,0.07157 -0.00659,0.21476 0.00207,0.27216c0.01658,0.10969 0.0525,0.1966 0.10876,0.26308c0.02425,0.02865 0.12497,0.11683 0.17306,0.15151c0.06729,0.04852 0.07405,0.05112 0.15728,0.06051c0.19748,0.02228 0.66993,0.03575 1.72875,0.04928c0.16086,0.00207 0.47726,0.00615 0.70312,0.00909c0.22586,0.00294 0.43815,0.00536 0.47175,0.00537l0.0611,0.00004v3.71862l-0.11719,0.00235c-0.06445,0.00131 -0.3786,0.00556 -0.69811,0.00948c-1.2634,0.01551 -1.64052,0.02149 -1.83092,0.02901c-0.28964,0.01144 -0.3684,0.02439 -0.46439,0.07632c-0.1972,0.10669 -0.2716,0.20538 -0.29118,0.38632c-0.00885,0.08175 -0.00159,0.2655 0.01644,0.41645c0.0776,0.64952 0.37406,1.31114 0.84666,1.88954c0.14288,0.17487 0.28216,0.32116 0.46936,0.49299c0.69613,0.63897 1.40508,1.00265 2.35178,1.20644c0.13626,0.02933 0.2062,0.03878 0.35256,0.04765c0.58666,0.03555 1.7216,0.03963 14.65736,0.05279c2.07681,0.00211 3.89366,0.0048 4.03744,0.00598l0.26142,0.00215v3.71495l-1.62159,-0.00064c-0.89187,-0.0004 -3.89861,-0.00175 -6.68165,-0.0031z" id="path4497 1 1" fill="#ffffff" stroke-width="0"></path><path d="M2,24c0,-12.15026 9.84974,-22 22,-22c12.15026,0 22,9.84974 22,22c0,12.15026 -9.84974,22 -22,22c-12.15026,0 -22,-9.84974 -22,-22z" id="base 1 9 1" fill="none" stroke-width="1"></path><path d="M2,24c0,-12.15026 9.84974,-22 22,-22c12.15026,0 22,9.84974 22,22c0,12.15026 -9.84974,22 -22,22c-12.15026,0 -22,-9.84974 -22,-22z" id="base 1 5 1" fill="none" stroke-width="1"></path><path d="M2,24c0,-12.15026 9.84974,-22 22,-22c12.15026,0 22,9.84974 22,22c0,12.15026 -9.84974,22 -22,22c-12.15026,0 -22,-9.84974 -22,-22z" id="base 1 1 1" fill="none" stroke-width="1"></path><g fill="#000000" stroke-width="1" font-family="Roboto, sans-serif" font-weight="normal" font-size="14" text-anchor="start"><g></g></g><rect x="2" y="2" width="44" height="22" fill="none" stroke-width="1"></rect><path d="M2,24v-22h44v22z" fill="none" stroke-width="1"></path><path d="M2,24v-22h44v22z" fill="none" stroke-width="1"></path><path d="M2,24v-22h44v22z" fill="none" stroke-width="1"></path><path d="M2,24v-22h44v22z" fill="none" stroke-width="1"></path><g id="svg4496 1 1" fill="#000000" stroke-width="1" font-family="Roboto, sans-serif" font-weight="normal" font-size="14" text-anchor="start"><g></g></g><rect x="2" y="2" width="44" height="22" fill="none" stroke-width="1"></rect><path d="M2,24v-22h44v22z" fill="none" stroke-width="1"></path><path d="M2,24v-22h44v22z" fill="none" stroke-width="1"></path><path d="M2,24v-22h44v22z" fill="none" stroke-width="1"></path><path d="M2,24v-22h44v22z" fill="none" stroke-width="1"></path><g id="svg4496 2 1" fill="#000000" stroke-width="1" font-family="Roboto, sans-serif" font-weight="normal" font-size="14" text-anchor="start"></g><rect x="2" y="2" width="44" height="22" fill="none" stroke-width="1"></rect><path d="M2,24v-22h44v22z" fill="none" stroke-width="1"></path><path d="M2,24v-22h44v22z" fill="none" stroke-width="1"></path><path d="M2,24v-22h44v22z" fill="none" stroke-width="1"></path><path d="M2,24v-22h44v22z" fill="none" stroke-width="1"></path></g></svg>